<svg width="179" height="22" viewBox="0 0 179 22" fill="none" xmlns="http://www.w3.org/2000/svg">
<g id="Latest News">
<path id="Vector" d="M173.136 19.5313C175.219 19.5313 176.261 18.8229 176.261 17.4063C176.261 16.8021 176.073 16.3229 175.698 15.9688C175.323 15.6146 174.636 15.3125 173.636 15.0625L171.917 14.625C170.646 14.3125 169.698 13.7708 169.073 13C168.448 12.2083 168.136 11.2708 168.136 10.1875C168.136 9.39583 168.313 8.66667 168.667 8C169.021 7.3125 169.584 6.76042 170.354 6.34375C171.125 5.92708 172.125 5.71875 173.354 5.71875C174.146 5.71875 174.948 5.8125 175.761 6C176.594 6.16667 177.438 6.45833 178.292 6.875L177.479 9.03125C175.959 8.34375 174.584 8 173.354 8C171.542 8 170.636 8.67708 170.636 10.0312C170.636 10.5521 170.802 11 171.136 11.375C171.469 11.75 172.094 12.0521 173.011 12.2812L174.729 12.7187C176.104 13.0521 177.115 13.5938 177.761 14.3438C178.407 15.0938 178.729 16.0625 178.729 17.25C178.729 18.1042 178.542 18.8854 178.167 19.5938C177.813 20.2812 177.229 20.8229 176.417 21.2188C175.625 21.6146 174.552 21.8125 173.198 21.8125C172.302 21.8125 171.407 21.7188 170.511 21.5313C169.636 21.3438 168.729 21.0417 167.792 20.625L168.479 18.5C169.375 18.8542 170.188 19.1146 170.917 19.2813C171.646 19.4479 172.386 19.5313 173.136 19.5313Z" fill="#1A3C6C"/>
<path id="Vector_2" d="M163.767 6.03174L159.798 21.5005H156.829L153.579 8.81299L150.235 21.5005H147.267L143.329 6.03174H145.954L147.517 12.5005L148.923 18.9067L152.267 6.03174H154.985L158.329 18.9692L159.704 12.5317L161.235 6.03174H163.767Z" fill="#1A3C6C"/>
<path id="Vector_3" d="M138.768 20.5938C137.83 21.0521 136.893 21.3646 135.955 21.5313C135.018 21.7188 134.153 21.8125 133.361 21.8125C131.132 21.8125 129.465 21.1771 128.361 19.9063C127.278 18.6354 126.736 16.8958 126.736 14.6875V12.8125C126.736 10.6667 127.278 8.94792 128.361 7.65625C129.465 6.36458 131.018 5.71875 133.018 5.71875C134.08 5.71875 135.049 5.9375 135.924 6.375C136.82 6.79167 137.528 7.4375 138.049 8.3125C138.591 9.16667 138.861 10.2708 138.861 11.625C138.861 12.5 138.736 13.5 138.486 14.625H129.268V14.6875C129.268 16.2708 129.591 17.4687 130.236 18.2812C130.903 19.0938 131.965 19.5 133.424 19.5C134.09 19.5 134.82 19.4167 135.611 19.25C136.424 19.0833 137.216 18.8229 137.986 18.4688L138.768 20.5938ZM133.018 7.96875C131.809 7.96875 130.893 8.36458 130.268 9.15625C129.663 9.92708 129.33 11.0208 129.268 12.4375H136.268C136.33 12.0625 136.361 11.7083 136.361 11.375C136.361 10.2083 136.028 9.35417 135.361 8.8125C134.716 8.25 133.934 7.96875 133.018 7.96875Z" fill="#1A3C6C"/>
<path id="Vector_4" d="M104.66 21.5V0.25H107.504C109.4 2.95833 111.139 5.6875 112.723 8.4375C114.327 11.1667 115.827 14.0208 117.223 17L116.91 8.875V0.25H119.566V21.5H116.723C115.264 18.4583 113.754 15.5 112.191 12.625C110.65 9.72917 108.962 6.90625 107.129 4.15625L107.316 12.8125V21.5H104.66Z" fill="#1A3C6C"/>
<path id="Vector_5" d="M90.1714 20.9377C89.0047 21.5211 87.7651 21.8127 86.4526 21.8127C85.3276 21.8127 84.4422 21.5836 83.7964 21.1252C83.1714 20.6669 82.7235 20.0523 82.4526 19.2815C82.2026 18.5107 82.0776 17.6565 82.0776 16.719V8.28149H79.3901V6.03149H82.0776V1.71899H84.6401V6.03149H89.7026V8.28149H84.6401V16.6252C84.6401 17.7086 84.8172 18.4586 85.1714 18.8752C85.5464 19.2711 86.1193 19.469 86.8901 19.469C87.2651 19.469 87.6506 19.4273 88.0464 19.344C88.4631 19.2398 88.911 19.0732 89.3901 18.844L90.1714 20.9377Z" fill="#1A3C6C"/>
<path id="Vector_6" d="M70.1196 19.5313C72.203 19.5313 73.2446 18.8229 73.2446 17.4063C73.2446 16.8021 73.0571 16.3229 72.6821 15.9688C72.3071 15.6146 71.6196 15.3125 70.6196 15.0625L68.9009 14.625C67.6301 14.3125 66.6821 13.7708 66.0571 13C65.4321 12.2083 65.1196 11.2708 65.1196 10.1875C65.1196 9.39583 65.2967 8.66667 65.6509 8C66.005 7.3125 66.5676 6.76042 67.3384 6.34375C68.1092 5.92708 69.1092 5.71875 70.3384 5.71875C71.13 5.71875 71.9321 5.8125 72.7446 6C73.578 6.16667 74.4217 6.45833 75.2759 6.875L74.4634 9.03125C72.9425 8.34375 71.5675 8 70.3384 8C68.5259 8 67.6196 8.67708 67.6196 10.0312C67.6196 10.5521 67.7863 11 68.1196 11.375C68.453 11.75 69.078 12.0521 69.9946 12.2812L71.7134 12.7187C73.0884 13.0521 74.0988 13.5938 74.7446 14.3438C75.3905 15.0938 75.7134 16.0625 75.7134 17.25C75.7134 18.1042 75.5259 18.8854 75.1509 19.5938C74.7967 20.2812 74.2134 20.8229 73.4009 21.2188C72.6092 21.6146 71.5363 21.8125 70.1821 21.8125C69.2863 21.8125 68.3905 21.7188 67.4946 21.5313C66.6196 21.3438 65.7134 21.0417 64.7759 20.625L65.4634 18.5C66.3592 18.8542 67.1717 19.1146 67.9009 19.2813C68.63 19.4479 69.3696 19.5313 70.1196 19.5313Z" fill="#1A3C6C"/>
<path id="Vector_7" d="M59.9346 20.5938C58.9971 21.0521 58.0596 21.3646 57.1221 21.5313C56.1846 21.7188 55.32 21.8125 54.5283 21.8125C52.2992 21.8125 50.6325 21.1771 49.5283 19.9063C48.445 18.6354 47.9033 16.8958 47.9033 14.6875V12.8125C47.9033 10.6667 48.445 8.94792 49.5283 7.65625C50.6325 6.36458 52.1846 5.71875 54.1846 5.71875C55.2471 5.71875 56.2158 5.9375 57.0908 6.375C57.9867 6.79167 58.695 7.4375 59.2158 8.3125C59.7575 9.16667 60.0283 10.2708 60.0283 11.625C60.0283 12.5 59.9033 13.5 59.6533 14.625H50.4346V14.6875C50.4346 16.2708 50.7575 17.4687 51.4033 18.2812C52.07 19.0938 53.1325 19.5 54.5908 19.5C55.2575 19.5 55.9867 19.4167 56.7783 19.25C57.5908 19.0833 58.3825 18.8229 59.1533 18.4688L59.9346 20.5938ZM54.1846 7.96875C52.9762 7.96875 52.0596 8.36458 51.4346 9.15625C50.8304 9.92708 50.4971 11.0208 50.4346 12.4375H57.4346C57.4971 12.0625 57.5283 11.7083 57.5283 11.375C57.5283 10.2083 57.195 9.35417 56.5283 8.8125C55.8825 8.25 55.1012 7.96875 54.1846 7.96875Z" fill="#1A3C6C"/>
<path id="Vector_8" d="M43.4702 20.9377C42.3036 21.5211 41.064 21.8127 39.7515 21.8127C38.6265 21.8127 37.7411 21.5836 37.0952 21.1252C36.4702 20.6669 36.0223 20.0523 35.7515 19.2815C35.5015 18.5107 35.3765 17.6565 35.3765 16.719V8.28149H32.689V6.03149H35.3765V1.71899H37.939V6.03149H43.0015V8.28149H37.939V16.6252C37.939 17.7086 38.116 18.4586 38.4702 18.8752C38.8452 19.2711 39.4181 19.469 40.189 19.469C40.564 19.469 40.9494 19.4273 41.3452 19.344C41.7619 19.2398 42.2098 19.0732 42.689 18.844L43.4702 20.9377Z" fill="#1A3C6C"/>
<path id="Vector_9" d="M28.9961 21.6563C28.0378 21.6563 27.2669 21.4375 26.6836 21C26.1211 20.5625 25.7253 20.0208 25.4961 19.375C24.4753 20.2708 23.5482 20.9062 22.7148 21.2812C21.8815 21.6354 21.0482 21.8125 20.2148 21.8125C18.8607 21.8125 17.8607 21.375 17.2148 20.5C16.569 19.625 16.2461 18.5521 16.2461 17.2813C16.2461 16.4271 16.4023 15.6667 16.7148 15C17.0273 14.3333 17.5586 13.8125 18.3086 13.4375C19.0586 13.0417 20.069 12.8438 21.3398 12.8438C21.9023 12.8438 22.5169 12.8854 23.1836 12.9688C23.8503 13.0312 24.5273 13.1146 25.2148 13.2188V11.125C25.2148 9.95833 24.9544 9.16667 24.4336 8.75C23.9336 8.3125 23.194 8.09375 22.2148 8.09375C20.8815 8.09375 19.3919 8.45833 17.7461 9.1875L16.9336 7.0625C17.8919 6.625 18.8086 6.29167 19.6836 6.0625C20.5586 5.83333 21.444 5.71875 22.3398 5.71875C23.7982 5.71875 24.9128 5.95833 25.6836 6.4375C26.4544 6.91667 26.9857 7.55208 27.2773 8.34375C27.569 9.13542 27.7148 10 27.7148 10.9375V17.625C27.7148 18.1042 27.8086 18.5104 27.9961 18.8438C28.1836 19.1562 28.5586 19.3125 29.1211 19.3125H29.4648V21.6563H28.9961ZM18.7773 17.25C18.7773 17.9583 18.944 18.5312 19.2773 18.9688C19.6107 19.4062 20.0898 19.625 20.7148 19.625C21.2565 19.625 21.8815 19.4688 22.5898 19.1563C23.2982 18.8229 24.1732 18.1667 25.2148 17.1875V15.2188C23.7982 14.9896 22.5482 14.875 21.4648 14.875C20.5065 14.875 19.819 15.0729 19.4023 15.4688C18.9857 15.8646 18.7773 16.4583 18.7773 17.25Z" fill="#1A3C6C"/>
<path id="Vector_10" d="M12.1875 18.9688V21.5H0.5625V0.25H3.28125V18.9688H12.1875Z" fill="#1A3C6C"/>
</g>
</svg>
