<svg width="80" height="652" viewBox="0 0 80 652" fill="none" xmlns="http://www.w3.org/2000/svg">
<path d="M1.25 46.2314L15.2773 41.8018V17.2275L1.25 12.7979V0.24707L72.9688 24.1885V35.3682L1.25 59.415V46.2314ZM37.2148 24.083L26.8789 20.8135V38.1104L37.2148 34.8408L55.3555 29.5674L37.2148 24.083ZM31.0977 82.7978H24.875C20.375 82.7978 17 83.6064 14.75 85.2236C12.5 86.8408 11.375 89.4423 11.375 93.0283C11.375 94.7861 11.5859 96.7548 12.0078 98.9345C12.5 101.185 13.2383 103.61 14.2227 106.212L3.99219 109.692C2.72656 106.528 1.77734 103.54 1.14453 100.727C0.511719 97.915 0.195312 95.1376 0.195312 92.3954C0.195312 85.3642 2.44531 79.9853 6.94531 76.2587C11.4453 72.5322 17.4219 70.6689 24.875 70.6689H31.0977C38.6211 70.6689 44.5977 72.5322 49.0273 76.2587C53.5273 79.9853 55.7773 85.3642 55.7773 92.3954C55.7773 95.0673 55.4609 97.7744 54.8281 100.517C54.1953 103.259 53.2813 106.142 52.0859 109.165L41.6445 105.685C43.6133 100.622 44.5977 96.4033 44.5977 93.0283C44.5977 89.4423 43.4727 86.8408 41.2227 85.2236C39.043 83.6064 35.668 82.7978 31.0977 82.7978ZM44.4922 151.167C44.4922 149.409 44.0703 147.405 43.2266 145.155C42.3828 142.905 40.7305 140.233 38.2695 137.14H1.25V125.011H79.2969V137.14H48.0781C50.8203 140.374 52.7891 143.398 53.9844 146.21C55.1797 149.023 55.7773 151.905 55.7773 154.858C55.7773 159.991 54.125 163.894 50.8203 166.566C47.5859 169.237 43.0156 170.573 37.1094 170.573H1.25V158.444H35.6328C41.5391 158.444 44.4922 156.019 44.4922 151.167ZM64.8477 203.267V190.505H77.3984V203.267H64.8477ZM1.25 202.951V190.822H54.7227V202.951H1.25ZM4.30859 264.485C2.83203 260.829 1.77734 257.383 1.14453 254.149C0.511719 250.915 0.195312 247.856 0.195312 244.973C0.195312 237.028 2.44531 231.016 6.94531 226.938C11.4453 222.86 17.4219 220.821 24.875 220.821H31.2031C36.1953 220.821 40.5195 221.735 44.1758 223.563C47.832 225.391 50.6797 227.993 52.7188 231.368C54.7578 234.743 55.7773 238.715 55.7773 243.286C55.7773 247.012 55.0039 250.493 53.457 253.727C51.9805 257.032 49.625 259.704 46.3906 261.743C43.2266 263.852 39.1484 264.907 34.1563 264.907C32.6797 264.907 31.0977 264.801 29.4102 264.59C27.793 264.38 26.0703 264.028 24.2422 263.536V232.528C19.8828 232.669 16.6133 233.758 14.4336 235.798C12.2539 237.837 11.1641 241.106 11.1641 245.606C11.1641 247.997 11.4453 250.458 12.0078 252.989C12.5703 255.59 13.4141 258.262 14.5391 261.005L4.30859 264.485ZM45.5469 243.286C45.5469 240.051 44.4922 237.52 42.3828 235.692C40.3438 233.934 37.3906 232.915 33.5234 232.633V252.883C33.875 252.954 34.1914 252.989 34.4727 252.989C34.8242 252.989 35.1406 252.989 35.4219 252.989C38.7969 252.989 41.3281 252.04 43.0156 250.141C44.7031 248.243 45.5469 245.958 45.5469 243.286ZM54.7227 325.088L1.25 306.103V295.029L54.7227 276.045V288.279L28.0391 297.455L16.9648 300.935L28.0391 304.31L54.7227 313.064V325.088ZM4.30859 379.009C2.83203 375.353 1.77734 371.908 1.14453 368.673C0.511719 365.439 0.195312 362.38 0.195312 359.498C0.195312 351.552 2.44531 345.54 6.94531 341.462C11.4453 337.384 17.4219 335.345 24.875 335.345H31.2031C36.1953 335.345 40.5195 336.259 44.1758 338.087C47.832 339.915 50.6797 342.517 52.7188 345.892C54.7578 349.267 55.7773 353.24 55.7773 357.81C55.7773 361.537 55.0039 365.017 53.457 368.251C51.9805 371.556 49.625 374.228 46.3906 376.267C43.2266 378.376 39.1484 379.431 34.1563 379.431C32.6797 379.431 31.0977 379.326 29.4102 379.115C27.793 378.904 26.0703 378.552 24.2422 378.06V347.052C19.8828 347.193 16.6133 348.283 14.4336 350.322C12.2539 352.361 11.1641 355.63 11.1641 360.13C11.1641 362.521 11.4453 364.982 12.0078 367.513C12.5703 370.115 13.4141 372.787 14.5391 375.529L4.30859 379.009ZM45.5469 357.81C45.5469 354.576 44.4922 352.044 42.3828 350.216C40.3438 348.458 37.3906 347.439 33.5234 347.158V367.408C33.875 367.478 34.1914 367.513 34.4727 367.513C34.8242 367.513 35.1406 367.513 35.4219 367.513C38.7969 367.513 41.3281 366.564 43.0156 364.665C44.7031 362.767 45.5469 360.482 45.5469 357.81ZM38.2695 409.752H1.25V397.623H54.7227V409.119H47.6563C50.5391 412.424 52.6133 415.482 53.8789 418.295C55.1445 421.107 55.7773 423.99 55.7773 426.943C55.7773 433.482 52.8945 437.947 47.1289 440.338C50.2227 443.853 52.4375 447.123 53.7734 450.146C55.1094 453.17 55.7773 456.228 55.7773 459.322C55.7773 464.244 54.125 468.006 50.8203 470.607C47.5859 473.209 43.0156 474.51 37.1094 474.51H1.25V462.381H35.6328C41.5391 462.381 44.4922 460.131 44.4922 455.631C44.4922 453.873 44.0703 451.939 43.2266 449.83C42.3828 447.72 40.7305 445.154 38.2695 442.131H1.25V430.002H35.6328C41.5391 430.002 44.4922 427.752 44.4922 423.252C44.4922 421.494 44.0703 419.56 43.2266 417.451C42.3828 415.342 40.7305 412.775 38.2695 409.752ZM4.30859 535.35C2.83203 531.694 1.77734 528.249 1.14453 525.014C0.511719 521.78 0.195312 518.721 0.195312 515.838C0.195312 507.893 2.44531 501.881 6.94531 497.803C11.4453 493.725 17.4219 491.686 24.875 491.686H31.2031C36.1953 491.686 40.5195 492.6 44.1758 494.428C47.832 496.256 50.6797 498.858 52.7188 502.233C54.7578 505.608 55.7773 509.581 55.7773 514.151C55.7773 517.878 55.0039 521.358 53.457 524.592C51.9805 527.897 49.625 530.569 46.3906 532.608C43.2266 534.717 39.1484 535.772 34.1563 535.772C32.6797 535.772 31.0977 535.667 29.4102 535.456C27.793 535.245 26.0703 534.893 24.2422 534.401V503.393C19.8828 503.534 16.6133 504.624 14.4336 506.663C12.2539 508.702 11.1641 511.971 11.1641 516.471C11.1641 518.862 11.4453 521.323 12.0078 523.854C12.5703 526.456 13.4141 529.128 14.5391 531.87L4.30859 535.35ZM45.5469 514.151C45.5469 510.917 44.4922 508.385 42.3828 506.557C40.3438 504.799 37.3906 503.78 33.5234 503.499V523.749C33.875 523.819 34.1914 523.854 34.4727 523.854C34.8242 523.854 35.1406 523.854 35.4219 523.854C38.7969 523.854 41.3281 522.905 43.0156 521.006C44.7031 519.108 45.5469 516.823 45.5469 514.151ZM44.4922 580.12C44.4922 578.362 44.0703 576.358 43.2266 574.108C42.3828 571.858 40.7305 569.186 38.2695 566.093H1.25V553.964H54.7227V565.46H47.5508C50.4336 568.765 52.5078 571.893 53.7734 574.847C55.1094 577.8 55.7773 580.788 55.7773 583.811C55.7773 588.944 54.125 592.847 50.8203 595.518C47.5859 598.19 43.0156 599.526 37.1094 599.526H1.25V587.397H35.6328C41.5391 587.397 44.4922 584.972 44.4922 580.12ZM3.04297 651.943C2.19922 650.115 1.53125 648.005 1.03906 645.615C0.476562 643.224 0.195312 640.798 0.195312 638.337C0.195312 634.259 1.03906 630.99 2.72656 628.529C4.41406 626.068 6.76953 624.275 9.79297 623.15C12.8164 622.095 16.2617 621.568 20.1289 621.568H44.1758V612.919H54.7227V621.568H68.6445V633.697H54.7227V650.361H44.1758V633.697H20.1289C16.8945 633.697 14.6445 634.294 13.3789 635.49C12.1836 636.755 11.5859 638.548 11.5859 640.868C11.5859 641.993 11.6914 643.189 11.9023 644.454C12.1836 645.79 12.6406 647.267 13.2734 648.884L3.04297 651.943Z" fill="#1A3C6C"/>
</svg>
